<?xml version="1.0" encoding="UTF-8"?>
<!DOCTYPE svg PUBLIC "-//W3C//DTD SVG 1.1//EN" "http://www.w3.org/Graphics/SVG/1.1/DTD/svg11.dtd">
<!-- Creator: CorelDRAW -->
<svg xmlns="http://www.w3.org/2000/svg" xml:space="preserve" width="3508px" height="591px" version="1.1" style="shape-rendering:geometricPrecision; text-rendering:geometricPrecision; image-rendering:optimizeQuality; fill-rule:evenodd; clip-rule:evenodd"
viewBox="0 0 3508 590.57"
 xmlns:xlink="http://www.w3.org/1999/xlink"
 xmlns:xodm="http://www.corel.com/coreldraw/odm/2003">
 <defs>
  <style type="text/css">
   <![CDATA[
    .str0 {stroke:#52ADDB;stroke-width:0.9;stroke-miterlimit:10}
    .fil0 {fill:#52ADDB}
    .fil1 {fill:#2B4366}
    .fil2 {fill:#52ADDB;fill-rule:nonzero}
    .fil3 {fill:#2B4366;fill-rule:nonzero}
   ]]>
  </style>
 </defs>
 <g id="Camada_x0020_1">
  <metadata id="CorelCorpID_0Corel-Layer"/>
  <path class="fil0 str0" d="M3409.22 44.28c31.58,-5.24 56.36,18.42 60.28,44.01 4.77,31.12 -17.67,55.79 -43.57,60 -31.56,5.14 -56.07,-17.57 -60.41,-43.08 -5.42,-31.9 17.69,-56.61 43.7,-60.93zm70.94 57.06c2.82,-36.17 -24.32,-64.87 -56.9,-67.72 -36.54,-3.2 -66,24.32 -68.53,57.33 -2.83,36.87 24.46,65.57 57.69,68.09 36.28,2.74 65.15,-24.46 67.74,-57.7z"/>
  <path class="fil0 str0" d="M3404.66 69.49c11.82,-1.71 29.93,-1.45 29.93,11.81 -0.01,13.88 -17.48,12.69 -29.91,12.23l-0.02 -24.04zm-9.67 -6.68c-0.75,6.79 -0.92,63.8 0.17,68.63l9.15 -0.02 0.37 -30.24c17.05,-0.67 23.66,-0.73 29.32,17.06 4.14,13.02 -1.69,13.64 12.35,13.12 0.18,-5.89 -3.75,-21.41 -7.95,-27.22 -2.32,-3.21 -4.62,-4.16 -6.01,-6.25 3.87,-3.03 9.43,-4.79 11.23,-12.77 1.9,-8.41 -1.65,-14.47 -6.16,-18.04 -10.1,-8 -28.22,-6.05 -42.47,-4.27z"/>
  <path class="fil1" d="M231.38 131.26c0.49,-0.55 0.04,-0.96 2.41,-1.37l46.96 -1.08c16.12,-0.07 34.52,-1.24 50.58,-0.04 10.78,0.8 10.43,-0.71 24.5,1.45 8.47,1.29 3.68,0.13 10.47,2.35 1.62,0.53 3.5,0.62 5.2,0.98 2.11,0.44 3.37,1.1 5.28,1.58 3.86,0.97 8.59,4.21 12.45,6.65 1.45,0.92 2.29,2.02 3.55,3.19 2.73,2.52 6.84,8.79 7.47,11.7 1.64,7.53 1.3,15.67 0.16,23.1 -0.47,3.04 -3.58,12.01 -5.11,14.52l-9.56 12.61c-5.13,5.19 -6.43,4.24 -9.42,7.01 -5.45,5.05 -11.02,5.77 -17.99,7.77 -20.81,5.98 -50.48,4.58 -71.93,4.31 -4.45,-0.06 -8.23,-0.4 -12.36,-0.44 -3.3,-0.02 -10.08,0.89 -11.82,-1.02 -0.47,-0.61 0.83,-8.32 0.91,-8.75 0.66,-3.36 0.58,-0.31 1.83,-8.79 0.2,-1.41 0.28,-2.83 0.54,-4.58 0.23,-1.55 0.67,-2.84 1.06,-4.64 1.15,-5.33 3.48,-26.82 4.29,-29.35 0.95,-2.93 0.83,-5.77 1.4,-9.29 0.66,-4.04 1.76,-4.17 1.31,-9.83 -1.47,-0.57 -1.13,-0.78 -1.81,-1.13 -1.46,-0.74 -1.25,-0.26 -2.8,-0.84 -0.14,-0.05 -0.27,-0.11 -0.4,-0.17l-10.48 -3.97c-1.65,-0.81 -1.13,-0.94 -2.11,-1.41 -1.03,-0.5 -2.13,-0.41 -3.33,-0.91 -1.48,-0.62 -0.48,-0.62 -2.21,-1.27 -0.95,-0.35 -1.99,-0.41 -2.92,-0.73l-3.81 -1.87c-2.73,-1.14 -1.72,-1.22 -3.76,-1.84l-5.64 -2.04c-2.64,-0.74 -1.73,-0.44 -2.91,-1.86zm181.82 -92.72c-4.39,-0.44 -5.64,-1.7 -8.99,-2.28 -3.36,-0.58 -6.99,-0.22 -10.31,-0.86 -7.59,-1.46 -22.07,-2.51 -30.3,-3.2 -13.14,-1.1 -30.13,-0.2 -43.69,-0.2l-87.63 0.02c-14.37,0.03 -30.39,-0.66 -44.55,0.14 -3.1,4.42 -1.87,12.48 -3.44,17.75 -0.87,2.92 -0.55,6.38 -1.21,9.17 -0.94,3.97 -1.48,4.19 -1.65,9.32 -0.17,4.98 -2.3,17.52 -3.56,22.55 -0.43,1.69 -0.47,2.7 -0.66,4.64 -0.39,3.86 -0.68,5.76 -1.54,9.07 -1.12,4.29 -0.48,8.12 -1.98,13.44 -0.85,2.98 -0.55,6.61 -1.16,9.79 -0.42,2.17 -0.77,1.88 -1.29,3.81 -0.85,3.15 -0.33,6.66 -0.81,10.1 -0.44,3.03 -1.3,5.54 -1.65,8.6 -0.37,3.28 -0.25,5.55 -0.93,8.11l63.63 0 -14.13 92.35 91.18 0 -11.01 71.98 32.69 0.02c4.96,0.03 13.86,0.46 17.99,1.62 1.51,0.43 1.5,0.83 3.25,1.36 4.61,1.42 5.34,0.99 11.49,3.51l12 7.7c3.51,3.41 6.09,7.54 6.48,7.94 1.21,1.25 1.31,-0.12 2.55,2.6 4.62,10.15 6.54,22.24 2.61,32.75 -1.38,3.69 -1.59,8.37 -5.71,13.47l-4.01 5.66c-0.84,1.19 -1.29,1.74 -1.96,2.69 -1.04,1.45 -1.11,1.46 -2.42,2.79 -2.06,2.11 -2.76,2.95 -4.93,4.88l-1.66 1.51c-1.61,1.18 1.71,-1.19 -0.98,0.6 -2.64,1.76 -2.28,2.93 -8.37,6.52l-16.18 8.09c-3.81,1.4 -16.08,3.24 -19.88,4.8 -5.16,2.11 -30.28,1.05 -38.2,1.06 -51.84,0 -104.4,-0.45 -156.18,0.51 -4,4.76 -1.54,5.07 -2.9,11.33 -1.01,4.64 -1.77,2.53 -2.02,8.67l-2.85 15.18c-1.57,4.83 -0.76,11.19 -2.69,16.42 -0.04,0.11 -0.11,0.24 -0.15,0.35 -0.28,0.87 -0.17,0.37 -0.31,1.58 -0.28,2.43 -0.38,4.01 -0.69,6.6 -0.57,4.85 -1.47,14.69 -2.54,19.18 -0.39,1.64 -0.75,4.35 -1.03,6.22 -1.85,12.4 -4.32,11.33 9.51,11.41l158.76 0.02c9.38,-0.01 21.07,1.05 30.06,-1.13 1.62,-0.4 8.29,-0.8 10.13,-0.84 11.48,-0.24 5.85,0.16 14.04,-1.39 4.24,-0.8 6.88,-0.3 10.91,-1.87 0.14,-0.06 0.26,-0.11 0.41,-0.16 2.11,-0.68 4.64,-0.45 6.84,-1.01 2.58,-0.67 0.51,-1.05 4.37,-1.41 4.32,-0.4 4.37,-0.64 8.01,-2.06l8.01 -2.88c2.25,-0.55 1.94,-0.55 3.78,-1.29l7.58 -2.82c2.48,-0.82 1.71,-1.17 4.07,-1.68 4.9,-1.06 5.81,-3.42 10.55,-4.89 2.6,-0.81 4.18,-2.68 6.56,-4.05 5.25,-3.01 12.97,-6.73 17.2,-10.57l3.91 -2.87c0.99,-0.62 1.15,-0.58 2.06,-1.1 1.22,-0.72 1.39,-1.35 2.48,-2.49l14.06 -12.72c0.07,-0.09 0.16,-0.21 0.23,-0.3l7.73 -8.32c0.1,-0.1 0.71,-0.75 0.73,-0.78 0.88,-1.04 0.24,-0.33 1.05,-1.47 0.83,-1.16 1.55,-1.77 2.28,-2.91 0.66,-1.03 1.32,-2.85 1.99,-3.78 0.68,-0.96 1.37,-1.43 2.33,-2.78l8.4 -12.74c0.97,-1.52 1.33,-1.33 2.18,-2.98l3.69 -7.11c0.74,-1.86 0.84,-2.07 1.62,-3.57 0.9,-1.71 0.71,-2.27 1.35,-3.84l3.86 -6.83 7.08 -24.95c0.52,-3.38 1.4,-5.81 1.72,-9.08 0.64,-6.68 1.97,-12.37 2.12,-19.01 0.18,-7.67 -0.14,-12.75 -1.34,-19.77 -0.52,-3.1 -0.57,-6.13 -1.09,-9.15 -0.45,-2.56 -0.85,-1.9 -1.28,-3.8 -0.17,-0.72 -0.26,-1.65 -0.34,-2.57 -0.07,-0.92 -0.14,-1.83 -0.26,-2.52 -0.64,-3.68 -2.56,-8.44 -3.76,-11.79 -0.6,-1.67 -0.59,-2.61 -1.36,-4.36 -0.65,-1.49 -0.73,-2.49 -1.33,-3.89l-9.6 -16.61c-0.24,-0.4 -0.77,-1.26 -1,-1.6 -2.1,-2.94 -3.97,-5.96 -6.69,-8.35l-3.01 -3.57c-0.37,-0.52 -0.65,-0.98 -1.06,-1.55 -3.27,-4.57 -4.02,-3.29 2.91,-9.8 1.05,-0.98 2.24,-1.73 2.99,-2.65 1.11,-1.38 1.2,-2.25 2.59,-3.65 1.56,-1.58 1.44,-0.82 2.8,-2.82 1.01,-1.5 1.25,-2.29 2.53,-3.67 1.17,-1.27 1.44,-1.92 2.84,-3.34 2.28,-2.32 9.13,-12.85 10.96,-16.4l1.88 -3.75c3.6,-5.3 6,-12.73 8.64,-18.71l2.88 -8.91c0.57,-2.32 1.06,-2.29 1.56,-4.79l2.4 -9.37c18.68,-63.65 -24.9,-139.59 -92.24,-146.27z"/>
  <polygon class="fil2" points="59.03,270.6 150.22,270.6 164.35,178.25 208.49,178.25 194.36,270.6 285.55,270.6 278.26,318.23 187.07,318.23 172.94,410.57 128.8,410.57 142.93,318.23 51.75,318.23 "/>
  <path class="fil3" d="M886.99 528.62l-100.02 -495.43 -107.55 0 -227.32 495.43 120.31 0 27.35 -59.99 155.27 0 12.31 59.99 119.65 0zm-179.23 -294.11l24.6 120.21 -79.98 0 55.38 -120.21z"/>
  <polygon id="_1" class="fil3" points="1214.11,322.7 1087.94,34.54 964.26,34.54 905.14,528.62 1018.74,528.62 1053.3,239.79 1180.06,528.62 1303.06,528.62 1362.35,33.19 1248.75,33.19 "/>
  <polygon id="_2" class="fil3" points="1702.47,33.19 1524.45,189.57 1543.16,33.19 1429.57,33.19 1370.28,528.62 1483.88,528.62 1502.51,372.92 1642.51,528.62 1806.52,528.62 1582.71,281.25 1865.81,33.19 "/>
  <path id="_3" class="fil2" d="M2165.53 241.59c13.48,-112.68 -66.05,-206.37 -178.73,-208.4l-113.6 0 -59.29 495.43 113.6 0 9.46 -79.08c113.17,-2.03 214.98,-94.48 228.56,-207.95zm-192.45 -93.81c50.17,2.03 84.91,43.14 78.85,93.81 -6.06,50.67 -50.66,91.9 -101.31,93.92l22.46 -187.73z"/>
  <polygon id="_4" class="fil2" points="2505.76,414.71 2325.62,414.71 2371.28,33.19 2257.68,33.19 2198.39,528.62 2492.13,528.62 "/>
  <path id="_5" class="fil2" d="M2748.9 528.62c102.41,-2.02 197.19,-86.27 207.51,-189.4l36.63 -306.03 -113.6 0 -36.7 306.7c-4.84,40.44 -40.55,74.82 -81.55,74.82 -20.17,0 -36.84,-6.74 -49.93,-20.9 -13.01,-14.83 -18.31,-32.35 -15.97,-51.9l36.94 -308.72 -113.59 0 -37.03 309.4c-5.46,51.22 9.22,97.06 40.57,132.78 30.84,34.38 74.29,53.25 124.7,53.25l2.02 0z"/>
  <path id="_6" class="fil2" d="M3120.83 538.06c24.2,0 48.96,-4.72 73.78,-15.5 62.37,-26.96 104.69,-82.91 112.19,-145.6 7.67,-64.03 -21.34,-119.31 -77.27,-146.27 -15.24,-7.41 -30.14,-12.13 -45.03,-16.85 -16.16,-5.39 -30.98,-10.78 -42.86,-18.2 -12.4,-8.76 -15.6,-26.96 -6.51,-41.12 14.17,-22.91 40.17,-15.5 43.53,-15.5 9.76,2.7 25.84,8.76 23.34,29.66l113.6 0c8.06,-67.41 -30.87,-124.03 -96.82,-140.2 -68.4,-18.2 -139.33,12.8 -178.85,73.47 -42.27,66.73 -28.75,150.31 29.68,190.08 22.34,15.5 46.32,22.92 67.62,30.33 12.21,4.72 22.64,7.42 32.16,12.14 24.01,12.8 24.27,33.03 23.15,42.46 -1.05,8.77 -6.4,31.01 -33.24,41.79 -19.11,8.09 -38.53,7.42 -53.37,-3.37 -8.09,-5.39 -21.86,-19.54 -18.63,-46.51l-113.6 0c-7.09,59.32 14.92,111.22 59.53,142.9 25.38,18.2 56.01,26.29 87.6,26.29z"/>
  <path class="fil0 str0" d="M3409.22 44.28c31.58,-5.24 56.36,18.42 60.28,44.01 4.77,31.12 -17.67,55.79 -43.57,60 -31.56,5.14 -56.07,-17.57 -60.41,-43.08 -5.42,-31.9 17.69,-56.61 43.7,-60.93zm70.94 57.06c2.82,-36.17 -24.32,-64.87 -56.9,-67.72 -36.54,-3.2 -66,24.32 -68.53,57.33 -2.83,36.87 24.46,65.57 57.69,68.09 36.28,2.74 65.15,-24.46 67.74,-57.7z"/>
  <path class="fil0 str0" d="M3404.66 69.49c11.82,-1.71 29.93,-1.45 29.93,11.81 -0.01,13.88 -17.48,12.69 -29.91,12.23l-0.02 -24.04zm-9.67 -6.68c-0.75,6.79 -0.92,63.8 0.17,68.63l9.15 -0.02 0.37 -30.24c17.05,-0.67 23.66,-0.73 29.32,17.06 4.14,13.02 -1.69,13.64 12.35,13.12 0.18,-5.89 -3.75,-21.41 -7.95,-27.22 -2.32,-3.21 -4.62,-4.16 -6.01,-6.25 3.87,-3.03 9.43,-4.79 11.23,-12.77 1.9,-8.41 -1.65,-14.47 -6.16,-18.04 -10.1,-8 -28.22,-6.05 -42.47,-4.27z"/>
  <path class="fil1" d="M231.38 131.26c0.49,-0.55 0.04,-0.96 2.41,-1.37l46.96 -1.08c16.12,-0.07 34.52,-1.24 50.58,-0.04 10.78,0.8 10.43,-0.71 24.5,1.45 8.47,1.29 3.68,0.13 10.47,2.35 1.62,0.53 3.5,0.62 5.2,0.98 2.11,0.44 3.37,1.1 5.28,1.58 3.86,0.97 8.59,4.21 12.45,6.65 1.45,0.92 2.29,2.02 3.55,3.19 2.73,2.52 6.84,8.79 7.47,11.7 1.64,7.53 1.3,15.67 0.16,23.1 -0.47,3.04 -3.58,12.01 -5.11,14.52l-9.56 12.61c-5.13,5.19 -6.43,4.24 -9.42,7.01 -5.45,5.05 -11.02,5.77 -17.99,7.77 -20.81,5.98 -50.48,4.58 -71.93,4.31 -4.45,-0.06 -8.23,-0.4 -12.36,-0.44 -3.3,-0.02 -10.08,0.89 -11.82,-1.02 -0.47,-0.61 0.83,-8.32 0.91,-8.75 0.66,-3.36 0.58,-0.31 1.83,-8.79 0.2,-1.41 0.28,-2.83 0.54,-4.58 0.23,-1.55 0.67,-2.84 1.06,-4.64 1.15,-5.33 3.48,-26.82 4.29,-29.35 0.95,-2.93 0.83,-5.77 1.4,-9.29 0.66,-4.04 1.76,-4.17 1.31,-9.83 -1.47,-0.57 -1.13,-0.78 -1.81,-1.13 -1.46,-0.74 -1.25,-0.26 -2.8,-0.84 -0.14,-0.05 -0.27,-0.11 -0.4,-0.17l-10.48 -3.97c-1.65,-0.81 -1.13,-0.94 -2.11,-1.41 -1.03,-0.5 -2.13,-0.41 -3.33,-0.91 -1.48,-0.62 -0.48,-0.62 -2.21,-1.27 -0.95,-0.35 -1.99,-0.41 -2.92,-0.73l-3.81 -1.87c-2.73,-1.14 -1.72,-1.22 -3.76,-1.84l-5.64 -2.04c-2.64,-0.74 -1.73,-0.44 -2.91,-1.86zm181.82 -92.72c-4.39,-0.44 -5.64,-1.7 -8.99,-2.28 -3.36,-0.58 -6.99,-0.22 -10.31,-0.86 -7.59,-1.46 -22.07,-2.51 -30.3,-3.2 -13.14,-1.1 -30.13,-0.2 -43.69,-0.2l-87.63 0.02c-14.37,0.03 -30.39,-0.66 -44.55,0.14 -3.1,4.42 -1.87,12.48 -3.44,17.75 -0.87,2.92 -0.55,6.38 -1.21,9.17 -0.94,3.97 -1.48,4.19 -1.65,9.32 -0.17,4.98 -2.3,17.52 -3.56,22.55 -0.43,1.69 -0.47,2.7 -0.66,4.64 -0.39,3.86 -0.68,5.76 -1.54,9.07 -1.12,4.29 -0.48,8.12 -1.98,13.44 -0.85,2.98 -0.55,6.61 -1.16,9.79 -0.42,2.17 -0.77,1.88 -1.29,3.81 -0.85,3.15 -0.33,6.66 -0.81,10.1 -0.44,3.03 -1.3,5.54 -1.65,8.6 -0.37,3.28 -0.25,5.55 -0.93,8.11l63.63 0 -14.13 92.35 91.18 0 -11.01 71.98 32.69 0.02c4.96,0.03 13.86,0.46 17.99,1.62 1.51,0.43 1.5,0.83 3.25,1.36 4.61,1.42 5.34,0.99 11.49,3.51l12 7.7c3.51,3.41 6.09,7.54 6.48,7.94 1.21,1.25 1.31,-0.12 2.55,2.6 4.62,10.15 6.54,22.24 2.61,32.75 -1.38,3.69 -1.59,8.37 -5.71,13.47l-4.01 5.66c-0.84,1.19 -1.29,1.74 -1.96,2.69 -1.04,1.45 -1.11,1.46 -2.42,2.79 -2.06,2.11 -2.76,2.95 -4.93,4.88l-1.66 1.51c-1.61,1.18 1.71,-1.19 -0.98,0.6 -2.64,1.76 -2.28,2.93 -8.37,6.52l-16.18 8.09c-3.81,1.4 -16.08,3.24 -19.88,4.8 -5.16,2.11 -30.28,1.05 -38.2,1.06 -51.84,0 -104.4,-0.45 -156.18,0.51 -4,4.76 -1.54,5.07 -2.9,11.33 -1.01,4.64 -1.77,2.53 -2.02,8.67l-2.85 15.18c-1.57,4.83 -0.76,11.19 -2.69,16.42 -0.04,0.11 -0.11,0.24 -0.15,0.35 -0.28,0.87 -0.17,0.37 -0.31,1.58 -0.28,2.43 -0.38,4.01 -0.69,6.6 -0.57,4.85 -1.47,14.69 -2.54,19.18 -0.39,1.64 -0.75,4.35 -1.03,6.22 -1.85,12.4 -4.32,11.33 9.51,11.41l158.76 0.02c9.38,-0.01 21.07,1.05 30.06,-1.13 1.62,-0.4 8.29,-0.8 10.13,-0.84 11.48,-0.24 5.85,0.16 14.04,-1.39 4.24,-0.8 6.88,-0.3 10.91,-1.87 0.14,-0.06 0.26,-0.11 0.41,-0.16 2.11,-0.68 4.64,-0.45 6.84,-1.01 2.58,-0.67 0.51,-1.05 4.37,-1.41 4.32,-0.4 4.37,-0.64 8.01,-2.06l8.01 -2.88c2.25,-0.55 1.94,-0.55 3.78,-1.29l7.58 -2.82c2.48,-0.82 1.71,-1.17 4.07,-1.68 4.9,-1.06 5.81,-3.42 10.55,-4.89 2.6,-0.81 4.18,-2.68 6.56,-4.05 5.25,-3.01 12.97,-6.73 17.2,-10.57l3.91 -2.87c0.99,-0.62 1.15,-0.58 2.06,-1.1 1.22,-0.72 1.39,-1.35 2.48,-2.49l14.06 -12.72c0.07,-0.09 0.16,-0.21 0.23,-0.3l7.73 -8.32c0.1,-0.1 0.71,-0.75 0.73,-0.78 0.88,-1.04 0.24,-0.33 1.05,-1.47 0.83,-1.16 1.55,-1.77 2.28,-2.91 0.66,-1.03 1.32,-2.85 1.99,-3.78 0.68,-0.96 1.37,-1.43 2.33,-2.78l8.4 -12.74c0.97,-1.52 1.33,-1.33 2.18,-2.98l3.69 -7.11c0.74,-1.86 0.84,-2.07 1.62,-3.57 0.9,-1.71 0.71,-2.27 1.35,-3.84l3.86 -6.83 7.08 -24.95c0.52,-3.38 1.4,-5.81 1.72,-9.08 0.64,-6.68 1.97,-12.37 2.12,-19.01 0.18,-7.67 -0.14,-12.75 -1.34,-19.77 -0.52,-3.1 -0.57,-6.13 -1.09,-9.15 -0.45,-2.56 -0.85,-1.9 -1.28,-3.8 -0.17,-0.72 -0.26,-1.65 -0.34,-2.57 -0.07,-0.92 -0.14,-1.83 -0.26,-2.52 -0.64,-3.68 -2.56,-8.44 -3.76,-11.79 -0.6,-1.67 -0.59,-2.61 -1.36,-4.36 -0.65,-1.49 -0.73,-2.49 -1.33,-3.89l-9.6 -16.61c-0.24,-0.4 -0.77,-1.26 -1,-1.6 -2.1,-2.94 -3.97,-5.96 -6.69,-8.35l-3.01 -3.57c-0.37,-0.52 -0.65,-0.98 -1.06,-1.55 -3.27,-4.57 -4.02,-3.29 2.91,-9.8 1.05,-0.98 2.24,-1.73 2.99,-2.65 1.11,-1.38 1.2,-2.25 2.59,-3.65 1.56,-1.58 1.44,-0.82 2.8,-2.82 1.01,-1.5 1.25,-2.29 2.53,-3.67 1.17,-1.27 1.44,-1.92 2.84,-3.34 2.28,-2.32 9.13,-12.85 10.96,-16.4l1.88 -3.75c3.6,-5.3 6,-12.73 8.64,-18.71l2.88 -8.91c0.57,-2.32 1.06,-2.29 1.56,-4.79l2.4 -9.37c18.68,-63.65 -24.9,-139.59 -92.24,-146.27z"/>
  <polygon class="fil2" points="59.03,270.6 150.22,270.6 164.35,178.25 208.49,178.25 194.36,270.6 285.55,270.6 278.26,318.23 187.07,318.23 172.94,410.57 128.8,410.57 142.93,318.23 51.75,318.23 "/>
  <path class="fil3" d="M886.99 528.62l-100.02 -495.43 -107.55 0 -227.32 495.43 120.31 0 27.35 -59.99 155.27 0 12.31 59.99 119.65 0zm-179.23 -294.11l24.6 120.21 -79.98 0 55.38 -120.21z"/>
  <polygon id="_1_0" class="fil3" points="1214.11,322.7 1087.94,34.54 964.26,34.54 905.14,528.62 1018.74,528.62 1053.3,239.79 1180.06,528.62 1303.06,528.62 1362.35,33.19 1248.75,33.19 "/>
  <polygon id="_2_1" class="fil3" points="1702.47,33.19 1524.45,189.57 1543.16,33.19 1429.57,33.19 1370.28,528.62 1483.88,528.62 1502.51,372.92 1642.51,528.62 1806.52,528.62 1582.71,281.25 1865.81,33.19 "/>
  <path id="_3_2" class="fil2" d="M2165.53 241.59c13.48,-112.68 -66.05,-206.37 -178.73,-208.4l-113.6 0 -59.29 495.43 113.6 0 9.46 -79.08c113.17,-2.03 214.98,-94.48 228.56,-207.95zm-192.45 -93.81c50.17,2.03 84.91,43.14 78.85,93.81 -6.06,50.67 -50.66,91.9 -101.31,93.92l22.46 -187.73z"/>
  <polygon id="_4_3" class="fil2" points="2505.76,414.71 2325.62,414.71 2371.28,33.19 2257.68,33.19 2198.39,528.62 2492.13,528.62 "/>
  <path id="_5_4" class="fil2" d="M2748.9 528.62c102.41,-2.02 197.19,-86.27 207.51,-189.4l36.63 -306.03 -113.6 0 -36.7 306.7c-4.84,40.44 -40.55,74.82 -81.55,74.82 -20.17,0 -36.84,-6.74 -49.93,-20.9 -13.01,-14.83 -18.31,-32.35 -15.97,-51.9l36.94 -308.72 -113.59 0 -37.03 309.4c-5.46,51.22 9.22,97.06 40.57,132.78 30.84,34.38 74.29,53.25 124.7,53.25l2.02 0z"/>
  <path id="_6_5" class="fil2" d="M3120.83 538.06c24.2,0 48.96,-4.72 73.78,-15.5 62.37,-26.96 104.69,-82.91 112.19,-145.6 7.67,-64.03 -21.34,-119.31 -77.27,-146.27 -15.24,-7.41 -30.14,-12.13 -45.03,-16.85 -16.16,-5.39 -30.98,-10.78 -42.86,-18.2 -12.4,-8.76 -15.6,-26.96 -6.51,-41.12 14.17,-22.91 40.17,-15.5 43.53,-15.5 9.76,2.7 25.84,8.76 23.34,29.66l113.6 0c8.06,-67.41 -30.87,-124.03 -96.82,-140.2 -68.4,-18.2 -139.33,12.8 -178.85,73.47 -42.27,66.73 -28.75,150.31 29.68,190.08 22.34,15.5 46.32,22.92 67.62,30.33 12.21,4.72 22.64,7.42 32.16,12.14 24.01,12.8 24.27,33.03 23.15,42.46 -1.05,8.77 -6.4,31.01 -33.24,41.79 -19.11,8.09 -38.53,7.42 -53.37,-3.37 -8.09,-5.39 -21.86,-19.54 -18.63,-46.51l-113.6 0c-7.09,59.32 14.92,111.22 59.53,142.9 25.38,18.2 56.01,26.29 87.6,26.29z"/>
 </g>
</svg>
